<?xml version="1.0" encoding="UTF-8"?>
<svg xmlns="http://www.w3.org/2000/svg" xmlns:xlink="http://www.w3.org/1999/xlink" width="30px" height="30px" viewBox="0 0 30 30" version="1.1">
<g id="surface1">
<path style=" stroke:none;fill-rule:nonzero;fill:rgb(0%,0%,0%);fill-opacity:1;" d="M 28.125 6.328125 L 1.875 6.328125 C 1.226562 6.328125 0.703125 6.851562 0.703125 7.5 C 0.703125 8.144531 1.226562 8.671875 1.875 8.671875 L 28.125 8.671875 C 28.773438 8.671875 29.296875 8.144531 29.296875 7.5 C 29.296875 6.851562 28.773438 6.328125 28.125 6.328125 Z M 22.5 13.828125 L 7.5 13.828125 C 6.851562 13.828125 6.328125 14.351562 6.328125 15 C 6.328125 15.648438 6.851562 16.171875 7.5 16.171875 L 22.5 16.171875 C 23.148438 16.171875 23.671875 15.648438 23.671875 15 C 23.671875 14.351562 23.148438 13.828125 22.5 13.828125 Z M 17.8125 21.328125 L 12.136719 21.328125 C 11.492188 21.328125 10.964844 21.851562 10.964844 22.5 C 10.964844 23.148438 11.492188 23.671875 12.136719 23.671875 L 17.8125 23.671875 C 18.460938 23.671875 18.984375 23.148438 18.984375 22.5 C 18.984375 21.851562 18.460938 21.328125 17.8125 21.328125 Z M 17.8125 21.328125 "/>
</g>
</svg>
