<svg width="23" height="22" viewBox="0 0 23 22" fill="none" xmlns="http://www.w3.org/2000/svg">
<path d="M7.59375 0C7.74908 0 7.875 0.12592 7.875 0.28125V2.25H14.625V0.28125C14.625 0.12592 14.7509 0 14.9062 0H16.5938C16.7491 0 16.875 0.12592 16.875 0.28125V2.25H19.125C20.989 2.25 22.5 3.76104 22.5 5.625V18C22.5 19.864 20.989 21.375 19.125 21.375H3.375C1.51104 21.375 0 19.864 0 18V5.625C0 3.76104 1.51104 2.25 3.375 2.25H5.625V0.28125C5.625 0.12592 5.75092 0 5.90625 0H7.59375ZM14.625 4.5H7.875V6.46875C7.875 6.62408 7.74908 6.75 7.59375 6.75H5.90625C5.75092 6.75 5.625 6.62408 5.625 6.46875V4.5H3.375C2.75368 4.5 2.25 5.00368 2.25 5.625V8.4375H20.25V5.625C20.25 5.00368 19.7463 4.5 19.125 4.5H16.875V6.46875C16.875 6.62408 16.7491 6.75 16.5938 6.75H14.9062C14.7509 6.75 14.625 6.62408 14.625 6.46875V4.5ZM2.25 10.6875V18C2.25 18.6213 2.75368 19.125 3.375 19.125H19.125C19.7463 19.125 20.25 18.6213 20.25 18V10.6875H2.25Z" fill="black"/>
</svg>
