<svg width="25" height="23" viewBox="0 0 25 23" fill="none" xmlns="http://www.w3.org/2000/svg">
<path fill-rule="evenodd" clip-rule="evenodd" d="M11.8244 0.241492C12.2171 -0.0804928 12.7825 -0.0804978 13.1752 0.24148L24.61 9.61628C24.9581 9.90164 25.0893 10.375 24.9378 10.7988C24.7862 11.2226 24.3847 11.5054 23.9346 11.5054H22.2791L21.4325 20.7579C21.3489 21.672 20.5823 22.3717 19.6643 22.3717H5.33607C4.41816 22.3717 3.65156 21.672 3.56792 20.7579L2.72129 11.5054H1.06538C0.615293 11.5054 0.213771 11.2226 0.0622449 10.7988C-0.0892815 10.375 0.0418845 9.90166 0.38994 9.61629L11.8244 0.241492ZM12.4998 2.44291L4.04499 9.3748H4.66587L5.66016 20.241H10.014V16.2027C10.014 14.072 11.7524 14.072 12.1447 14.072H12.8549C13.2471 14.072 14.9855 14.072 14.9855 16.2027V20.241H19.3403L20.3346 9.3748H20.9549L12.4998 2.44291Z" fill="black"/>
</svg>
